<?xml version="1.0" encoding="utf-8"?>
<!-- Generator: Adobe Illustrator 22.1.0, SVG Export Plug-In . SVG Version: 6.00 Build 0)  -->
<svg version="1.1" id="图层_1" xmlns="http://www.w3.org/2000/svg" xmlns:xlink="http://www.w3.org/1999/xlink" x="0px" y="0px"
	 viewBox="0 0 32 32" style="enable-background:new 0 0 32 32;" xml:space="preserve">
<style type="text/css">
	.st0{fill:#DF0011;}
</style>
<g>
	<path class="st0" d="M11.1,28.8C11.1,28.8,11.1,28.8,11.1,28.8C11.1,28.8,11.1,28.8,11.1,28.8L11.1,28.8z M31,1.5
		c0-0.1-0.1-0.1-0.2-0.1c0,0,0,0,0,0l0,0c-4.6,4.2-16.3,13-29.6,5.3l0,0c0,0-0.1,0-0.1,0c-0.1,0-0.1,0.1-0.1,0.2l0,0
		c1.3,2.9,8.5,18.3,10.2,21.9c0.1,0.2,0.4,0.3,0.6,0.2c0.1-0.1,0.2-0.2,0.2-0.2c0.5-0.8,1.6-2.3,3-4.2c-1.8-3.8-3.9-8.4-4.5-9.6
		c0,0-0.1-0.3-0.2-0.6c-0.1-0.6,0.3-1.1,1-1c0.4,0.1,0.7,0.3,0.7,0.3c2.3,1.4,4.6,1.9,6.6,1.9c1,0,2-0.1,3-0.3
		C25.3,9.7,29.2,4.2,31,1.7l0,0C31,1.6,31,1.6,31,1.5z"/>
	<path class="st0" d="M31,11.1c-2.5,3.5-10.9,15.5-12.5,17.8c0,0-0.1,0.1-0.2,0.1c-0.2,0.1-0.3,0-0.4-0.2l0,0
		c-1.1-2.3-5.8-12.5-6.7-14.3l0,0c0,0,0-0.1,0.1-0.1c0,0,0.1,0,0.1,0l0,0c8.7,5,16.4-0.7,19.4-3.5h0c0,0,0,0,0,0c0.1,0,0.1,0,0.1,0
		C31,11.1,31,11.1,31,11.1L31,11.1z"/>
</g>
</svg>
