<?xml version="1.0" encoding="utf-8"?>
<!-- Generator: Adobe Illustrator 22.1.0, SVG Export Plug-In . SVG Version: 6.00 Build 0)  -->
<svg version="1.1" id="图层_1" xmlns="http://www.w3.org/2000/svg" xmlns:xlink="http://www.w3.org/1999/xlink" x="0px" y="0px"
	 viewBox="0 0 194 88" style="enable-background:new 0 0 194 88;" xml:space="preserve">
<style type="text/css">
	.st0{fill:#DF0011;}
	.st1{fill:#3E3A39;}
	.st2{fill:#1A1A1A;}
</style>
<g>
	<g>
		<g>
			<g>
				<polygon class="st0" points="152.2,54.5 152.1,54.6 152.1,70.5 152.2,70.5 155.6,70.5 155.8,70.5 155.8,54.6 155.6,54.5 				"/>
			</g>
			<g>
				<path class="st1" d="M141,50.3c1.1,0,1.9-0.9,1.9-1.9c0-1.1-0.9-1.9-1.9-1.9c-1.1,0-1.9,0.9-1.9,1.9
					C139.1,49.4,140,50.3,141,50.3z"/>
				<polygon class="st1" points="139.3,54.5 139.2,54.6 139.2,70.5 139.3,70.5 142.7,70.5 142.9,70.5 142.9,54.6 142.7,54.5 				"/>
			</g>
			<path class="st0" d="M166,54.4h-7.6l-0.1,0.1v15.9h0.1h3.5h0.1V55.7h1.8h0.9c0.7,0,1.2,0,1.6,0.1c1.9,0.6,2.8,1.7,2.8,3.4v11.3
				h0.1h3.5h0.1v-9.1C173,56.1,169.3,54.4,166,54.4z"/>
			<path class="st0" d="M149.5,70.5h-3.9V47.8l3.9-2.1V70.5z"/>
			<path class="st2" d="M129.7,54.4h-3.9v-8.8l-3.9,2.1v22.7h0.3h3.5h0.2V55.7h1.8h0.9c0.7,0,1.2,0,1.6,0.1c1.9,0.6,2.8,1.7,2.8,3.4
				v11.3h0.1h3.5h0.1v-9.1C136.6,56.1,133,54.4,129.7,54.4z"/>
			<path class="st0" d="M179.3,70.5h-3.9V47.8l3.9-2.1V70.5z"/>
			<polygon class="st0" points="183.4,61 191,70.5 185.8,70.5 179.6,61.9 187.6,54.1 190.4,54.1 			"/>
			<g>
				<path class="st2" d="M119.3,45.8l-14.5,22.5h14.5v2.1H97.1L111.5,48H97.1v-2.2H119.3z"/>
			</g>
		</g>
		<g>
			<g>
				<path class="st0" d="M32.6,82.2C32.6,82.2,32.6,82.2,32.6,82.2C32.6,82.2,32.6,82.2,32.6,82.2L32.6,82.2z M90.2,3.1
					c-0.1-0.2-0.4-0.3-0.6-0.2c0,0-0.1,0-0.1,0.1l0,0C76.2,15.1,42.1,40.5,3.8,18.3l-0.1,0c-0.1-0.1-0.2-0.1-0.4,0
					c-0.2,0.1-0.3,0.4-0.2,0.6h0c3.9,8.3,24.7,53,29.5,63.4c0.3,0.7,1.1,1,1.8,0.6c0.4-0.2,0.7-0.7,0.7-0.7
					c1.6-2.2,4.6-6.6,8.6-12.2c-5.1-10.9-11.3-24.4-13-27.9c0,0-0.4-0.8-0.5-1.8c-0.2-1.9,0.9-3.1,2.8-2.9c1.2,0.2,2,0.7,2,0.7
					c6.8,3.9,13.2,5.4,19.2,5.4c3,0,5.8-0.4,8.6-1C73.8,26.9,85,10.9,90.2,3.5l0,0C90.3,3.4,90.3,3.2,90.2,3.1z"/>
				<path class="st0" d="M90.2,30.9c-7.1,10.2-31.5,44.9-36.1,51.5c0,0-0.2,0.3-0.5,0.4c-0.4,0.2-1,0-1.2-0.4l0,0
					c-3.1-6.8-16.8-36.1-19.3-41.6l0,0c0-0.1,0-0.3,0.2-0.4c0.1,0,0.2,0,0.3,0l0.1,0c25.1,14.6,47.4-2,56.1-10l0,0c0,0,0,0,0.1,0
					c0.2-0.1,0.3,0,0.4,0.1C90.3,30.7,90.3,30.8,90.2,30.9L90.2,30.9z"/>
			</g>
		</g>
	</g>
	<path class="st0" d="M160.1,44.4c-1.2,1.7-5.3,7.6-6.1,8.7c0,0,0,0-0.1,0.1c-0.1,0-0.2,0-0.2-0.1v0c-0.5-1.1-2.8-6.1-3.3-7l0,0
		c0,0,0-0.1,0-0.1c0,0,0,0,0,0l0,0C154.8,48.5,158.5,45.7,160.1,44.4L160.1,44.4C160,44.3,160,44.3,160.1,44.4
		C160,44.3,160.1,44.3,160.1,44.4C160.1,44.4,160.1,44.4,160.1,44.4L160.1,44.4z"/>
</g>
</svg>
